<svg width="130" height="32" viewBox="0 0 130 32" fill="none" xmlns="http://www.w3.org/2000/svg">
<path d="M9.6363 11.4113C10.6171 11.4113 11.4123 10.6162 11.4123 9.63533C11.4123 8.6545 10.6171 7.85938 9.6363 7.85938C8.65547 7.85938 7.86035 8.6545 7.86035 9.63533C7.86035 10.6162 8.65547 11.4113 9.6363 11.4113Z" fill="#FF0000"/>
<g clip-path="url(#clip0_9495_2768)">
<path d="M63.3317 8.00781H57.779C56.0763 8.00781 54.6694 9.26634 54.4473 10.9694L52.8555 23.9998H56.1132L56.7054 19.2243H58.98L61.5178 23.9998H65.2937L62.1956 18.1369L65.6638 13.931C67.9219 11.1915 66.6634 8.00814 63.3317 8.00814V8.00781ZM62.5173 12.5981L60.074 15.6337C59.9259 15.8189 59.6667 15.9298 59.4446 15.9298H57.1124L57.6678 11.2655H61.9988C62.7023 11.2655 62.9984 11.969 62.517 12.5981H62.5173Z" fill="black"/>
<path d="M91.8522 8.00781H86.2995C84.5968 8.00781 83.1899 9.26634 82.9678 10.9694L81.376 23.9998H84.6337L85.2259 19.2243H87.5005L90.0383 23.9998H93.8142L90.7161 18.1369L94.1843 13.931C96.4425 11.1915 95.1839 8.00814 91.8522 8.00814V8.00781ZM91.0379 12.5981L88.5945 15.6337C88.4464 15.8189 88.1872 15.9298 87.9651 15.9298H85.6329L86.1883 11.2655H90.5193C91.2228 11.2655 91.5189 11.969 91.0375 12.5981H91.0379Z" fill="#FF2410"/>
<path d="M35.3092 8.00781H29.7566C28.0539 8.00781 26.6469 9.26634 26.4248 10.9694L24.833 23.9998H28.0907L28.683 19.2243H32.0147C32.829 19.2243 33.6434 18.8542 34.1988 18.1507L37.6786 13.9306C40.0847 11.0062 38.641 8.00781 35.3092 8.00781ZM34.5317 12.5981L32.0884 15.6337C31.9403 15.8189 31.681 15.9298 31.459 15.9298H29.0896L29.645 11.2655H34.0132C34.7167 11.2655 35.0128 11.969 34.5314 12.5981H34.5317Z" fill="black"/>
<path d="M46.7475 7.85938C43.3417 7.85938 40.3065 10.6729 39.862 14.2264L39.4178 17.743C38.9736 21.2968 41.3426 24.1472 44.7483 24.1472C48.1541 24.1472 51.1894 21.2968 51.6339 17.743L52.0781 14.2264C52.5223 10.6729 50.1529 7.85938 46.7475 7.85938ZM48.9684 14.2264L48.5242 17.7802C48.3022 19.4829 46.8215 20.8898 45.1557 20.8898C43.4898 20.8898 42.3053 19.4832 42.5274 17.7802L42.9716 14.2264C43.1937 12.4865 44.6743 11.1167 46.3402 11.1167C48.006 11.1167 49.1905 12.4865 48.9684 14.2264Z" fill="black"/>
<path d="M12.8063 12.8202C12.473 15.5965 14.25 17.6325 17.0264 17.6325H18.8031C19.6915 17.6325 20.2837 18.2988 20.1728 19.1872C20.0616 20.0755 19.3213 20.7418 18.433 20.7418H11.8439L11.4365 23.9998H18.1C20.8395 23.9998 23.0976 21.9638 23.4305 19.2243C23.7639 16.448 21.9868 14.3748 19.2104 14.3748H17.4337C16.5453 14.3748 15.9531 13.7085 16.064 12.8202C16.1752 11.9318 16.9155 11.2655 17.8039 11.2655H24.393L24.8003 8.00781H18.2109C15.4345 8.00781 13.1392 10.0438 12.8063 12.8202Z" fill="black"/>
<path d="M112.899 14.3751C113.121 12.6352 114.602 11.2655 116.268 11.2655H120.975L121.382 8.00781H116.675C113.269 8.00781 110.234 10.8213 109.79 14.3748L109.382 17.5953C108.938 21.1492 111.27 23.9623 114.676 23.9995H119.408L119.815 20.7418H115.083C113.418 20.705 112.27 19.3352 112.492 17.6322L112.899 14.3745V14.3751Z" fill="#FF2410"/>
<path d="M97.3143 10.9697L96.0927 21.0386C95.8706 22.7413 96.981 24.0002 98.6841 24.0002H106.569L106.976 20.7425H99.4244L99.7945 17.6328H106.125L106.532 14.3751H100.202L100.572 11.2655H108.124L108.531 8.00781H100.646C98.9437 8.00781 97.5368 9.26634 97.3147 10.9694L97.3143 10.9697Z" fill="#FF2410"/>
<path d="M68.6621 11.2655H73.1783L71.6237 23.9998H74.8814L76.436 11.2655H80.9523L81.3596 8.00781H69.0694L68.6621 11.2655Z" fill="black"/>
</g>
</svg>
