<svg width="16" height="18" viewBox="0 0 16 18" fill="none" xmlns="http://www.w3.org/2000/svg">
<path d="M11.3806 6.75V4.5C11.3806 2.84315 10.0375 1.5 8.38065 1.5C6.72379 1.5 5.38065 2.84315 5.38065 4.5V6.75M2.07465 7.76397L1.62465 12.564C1.4967 13.9287 1.43273 14.6111 1.65919 15.1382C1.85812 15.6012 2.20674 15.984 2.64916 16.2253C3.15279 16.5 3.83817 16.5 5.20893 16.5H11.5524C12.9231 16.5 13.6085 16.5 14.1121 16.2253C14.5546 15.984 14.9032 15.6012 15.1021 15.1382C15.3286 14.6111 15.2646 13.9287 15.1366 12.564L14.6866 7.76397C14.5786 6.61151 14.5246 6.03528 14.2654 5.59962C14.0371 5.21594 13.6999 4.90883 13.2966 4.71738C12.8386 4.5 12.2599 4.5 11.1024 4.5L5.65893 4.5C4.50142 4.5 3.92266 4.5 3.46471 4.71738C3.0614 4.90883 2.72415 5.21594 2.49589 5.59962C2.23672 6.03528 2.18269 6.61151 2.07465 7.76397Z" stroke="#9395B8" stroke-width="1.5" stroke-linecap="round" stroke-linejoin="round"/>
</svg>
