<svg width="17" height="16" viewBox="0 0 17 16" fill="none" xmlns="http://www.w3.org/2000/svg">
<path d="M15.8809 14.75V13.25C15.8809 11.8521 14.9248 10.6775 13.6309 10.3445M11.0059 1.46807C12.1053 1.91311 12.8809 2.99098 12.8809 4.25C12.8809 5.50902 12.1053 6.58689 11.0059 7.03193M12.1309 14.75C12.1309 13.3522 12.1309 12.6533 11.9025 12.1019C11.598 11.3669 11.014 10.7828 10.2789 10.4784C9.7276 10.25 9.02868 10.25 7.63086 10.25H5.38086C3.98303 10.25 3.28412 10.25 2.73281 10.4784C1.99772 10.7828 1.4137 11.3669 1.10922 12.1019C0.880859 12.6533 0.880859 13.3522 0.880859 14.75M9.50586 4.25C9.50586 5.90685 8.16271 7.25 6.50586 7.25C4.849 7.25 3.50586 5.90685 3.50586 4.25C3.50586 2.59315 4.849 1.25 6.50586 1.25C8.16271 1.25 9.50586 2.59315 9.50586 4.25Z" stroke="#9395B8" stroke-width="1.35" stroke-linecap="round" stroke-linejoin="round"/>
</svg>
